<mxfile host="app.diagrams.net" agent="Mozilla/5.0 (Windows NT 10.0; Win64; x64) AppleWebKit/537.36 (KHTML, like Gecko) Chrome/134.0.0.0 Safari/537.36 OPR/119.0.0.0" version="27.2.0">
  <diagram name="Página-1" id="kK9Q5x7Ul4syOyAzXMhQ">
    <mxGraphModel dx="2320" dy="1191" grid="1" gridSize="10" guides="1" tooltips="1" connect="1" arrows="1" fold="1" page="1" pageScale="1" pageWidth="1920" pageHeight="1200" math="0" shadow="0">
      <root>
        <mxCell id="0" />
        <mxCell id="1" parent="0" />
        <mxCell id="czN3PmELxrrif3z_Lymv-1" value="&lt;p style=&quot;margin:0px;margin-top:4px;text-align:center;&quot;&gt;&lt;b&gt;Caso de uso:&amp;nbsp; Exclusão de Atividades&lt;/b&gt;&lt;/p&gt;&lt;hr size=&quot;1&quot; style=&quot;border-style:solid;&quot;&gt;&lt;p style=&quot;margin:0px;margin-left:4px;&quot;&gt;Atores: Usuário&lt;/p&gt;&lt;hr id=&quot;null&quot;&gt;&lt;p style=&quot;margin:0px;margin-left:4px;&quot;&gt;Finalidade: Excluir registro de eventos/atividades&lt;/p&gt;&lt;hr size=&quot;1&quot; style=&quot;border-style:solid;&quot;&gt;&lt;p style=&quot;margin:0px;margin-left:4px;&quot;&gt;Visão Geral: Excluir&amp;nbsp;&lt;span style=&quot;background-color: transparent; color: light-dark(rgb(0, 0, 0), rgb(255, 255, 255));&quot;&gt;registros dos eventos/atividades existentes.&lt;/span&gt;&lt;/p&gt;&lt;hr id=&quot;null&quot;&gt;&lt;p style=&quot;margin:0px;margin-left:4px;&quot;&gt;Tipo: Primário&lt;/p&gt;&lt;hr id=&quot;null&quot;&gt;&lt;div&gt;Referências &lt;br&gt;Cruzadas: Requisitos -&amp;gt;&amp;nbsp; RF_B5&lt;/div&gt;&lt;div&gt;&lt;br&gt;&lt;/div&gt;" style="verticalAlign=top;align=left;overflow=fill;html=1;whiteSpace=wrap;" parent="1" vertex="1">
          <mxGeometry x="460" y="1340" width="330" height="280" as="geometry" />
        </mxCell>
        <mxCell id="czN3PmELxrrif3z_Lymv-2" value="&lt;p style=&quot;margin:0px;margin-top:4px;text-align:center;&quot;&gt;&lt;b&gt;Caso de uso:&amp;nbsp; Adicionar ContaFixa&lt;/b&gt;&lt;/p&gt;&lt;hr size=&quot;1&quot; style=&quot;border-style:solid;&quot;&gt;&lt;p style=&quot;margin:0px;margin-left:4px;&quot;&gt;Atores: Usuário&lt;/p&gt;&lt;hr id=&quot;null&quot;&gt;&lt;p style=&quot;margin:0px;margin-left:4px;&quot;&gt;Finalidade: Obter registro das contas Fixas&lt;/p&gt;&lt;hr size=&quot;1&quot; style=&quot;border-style:solid;&quot;&gt;&lt;p style=&quot;margin:0px;margin-left:4px;&quot;&gt;Visão Geral: Adiciona contas fixas (aluguel, condômino), métodos caso hajam divisões (como rateios) e vencimento da conta&lt;/p&gt;&lt;hr id=&quot;null&quot;&gt;&lt;p style=&quot;margin:0px;margin-left:4px;&quot;&gt;Tipo: Primário&lt;/p&gt;&lt;hr id=&quot;null&quot;&gt;&lt;div&gt;Referências &lt;br&gt;Cruzadas: Requisitos -&amp;gt;&amp;nbsp; RF_B2, RF_B2.2 RF_F2, RF_S1, RF_S2&lt;/div&gt;&lt;div&gt;&lt;br&gt;&lt;/div&gt;" style="verticalAlign=top;align=left;overflow=fill;html=1;whiteSpace=wrap;" parent="1" vertex="1">
          <mxGeometry x="90" y="70" width="330" height="280" as="geometry" />
        </mxCell>
        <mxCell id="czN3PmELxrrif3z_Lymv-3" value="&lt;p style=&quot;margin:0px;margin-top:4px;text-align:center;&quot;&gt;&lt;b&gt;Caso de uso:&amp;nbsp; Adicionar Atividade no Calendário&lt;/b&gt;&lt;/p&gt;&lt;hr size=&quot;1&quot; style=&quot;border-style:solid;&quot;&gt;&lt;p style=&quot;margin:0px;margin-left:4px;&quot;&gt;Atores: Usuário&lt;/p&gt;&lt;hr id=&quot;null&quot;&gt;&lt;p style=&quot;margin:0px;margin-left:4px;&quot;&gt;Finalidade: Obter registro dos eventos/atividades&lt;/p&gt;&lt;hr size=&quot;1&quot; style=&quot;border-style:solid;&quot;&gt;&lt;p style=&quot;margin:0px;margin-left:4px;&quot;&gt;Visão Geral:&amp;nbsp;&lt;span style=&quot;background-color: transparent; color: light-dark(rgb(0, 0, 0), rgb(255, 255, 255));&quot;&gt;É inserida uma nova atividade obtendo o horário e data. O sistema registra a atividade e a armazena para futura consulta e edição.&lt;/span&gt;&lt;/p&gt;&lt;hr id=&quot;null&quot;&gt;&lt;p style=&quot;margin:0px;margin-left:4px;&quot;&gt;Tipo: Primário&lt;/p&gt;&lt;hr id=&quot;null&quot;&gt;&lt;div&gt;Referências &lt;br&gt;Cruzadas: Requisitos -&amp;gt;&amp;nbsp; RF_B1, RF_B1.2 RF_F1, RF_S2&lt;/div&gt;&lt;div&gt;&lt;br&gt;&lt;/div&gt;" style="verticalAlign=top;align=left;overflow=fill;html=1;whiteSpace=wrap;" parent="1" vertex="1">
          <mxGeometry x="460" y="70" width="330" height="280" as="geometry" />
        </mxCell>
        <mxCell id="czN3PmELxrrif3z_Lymv-4" value="&lt;p style=&quot;margin:0px;margin-top:4px;text-align:center;&quot;&gt;&lt;b&gt;Caso de uso:&amp;nbsp; Adicionar ContaDeLuz&lt;/b&gt;&lt;/p&gt;&lt;hr size=&quot;1&quot; style=&quot;border-style:solid;&quot;&gt;&lt;p style=&quot;margin:0px;margin-left:4px;&quot;&gt;Atores: Usuário&lt;/p&gt;&lt;hr id=&quot;null&quot;&gt;&lt;p style=&quot;margin:0px;margin-left:4px;&quot;&gt;Finalidade: Obter registro das contas de Luz&lt;/p&gt;&lt;hr size=&quot;1&quot; style=&quot;border-style:solid;&quot;&gt;&lt;p style=&quot;margin:0px;margin-left:4px;&quot;&gt;Visão Geral: Adiciona contas de luz, o valor do Kwh da região.&lt;/p&gt;&lt;hr id=&quot;null&quot;&gt;&lt;p style=&quot;margin:0px;margin-left:4px;&quot;&gt;Tipo: Primário&lt;/p&gt;&lt;hr id=&quot;null&quot;&gt;&lt;div&gt;Referências &lt;br&gt;Cruzadas: Requisitos -&amp;gt;&amp;nbsp; RF_B3, RF_B3.2, RF_F2, RF_S1, RF_S2&lt;/div&gt;&lt;div&gt;&lt;br&gt;&lt;/div&gt;" style="verticalAlign=top;align=left;overflow=fill;html=1;whiteSpace=wrap;" parent="1" vertex="1">
          <mxGeometry x="90" y="480" width="330" height="280" as="geometry" />
        </mxCell>
        <mxCell id="czN3PmELxrrif3z_Lymv-5" value="&lt;p style=&quot;margin:0px;margin-top:4px;text-align:center;&quot;&gt;&lt;b&gt;Caso de uso:&amp;nbsp; Consumo de Objeto&lt;/b&gt;&lt;/p&gt;&lt;hr size=&quot;1&quot; style=&quot;border-style:solid;&quot;&gt;&lt;p style=&quot;margin:0px;margin-left:4px;&quot;&gt;Atores: Usuário&lt;/p&gt;&lt;hr id=&quot;null&quot;&gt;&lt;p style=&quot;margin:0px;margin-left:4px;&quot;&gt;Finalidade: Obter registro dos Eletrosdomesticos&lt;/p&gt;&lt;hr size=&quot;1&quot; style=&quot;border-style:solid;&quot;&gt;&lt;p style=&quot;margin:0px;margin-left:4px;&quot;&gt;Visão Geral:&lt;span style=&quot;background-color: transparent; color: light-dark(rgb(0, 0, 0), rgb(255, 255, 255));&quot;&gt;&amp;nbsp;&lt;/span&gt;&lt;span style=&quot;background-color: transparent; color: light-dark(rgb(0, 0, 0), rgb(255, 255, 255));&quot;&gt;O consumo em KW/H (e o valor do KW/H)&amp;nbsp; de cada objeto na casa e a quantia de horas que o mesmo funciona por dia (ou se funciona em tempo integral) são informados pelo usuário&lt;/span&gt;&lt;/p&gt;&lt;hr id=&quot;null&quot;&gt;&lt;p style=&quot;margin:0px;margin-left:4px;&quot;&gt;Tipo: Primário&lt;/p&gt;&lt;hr id=&quot;null&quot;&gt;&lt;div&gt;Referências &lt;br&gt;Cruzadas: Requisitos -&amp;gt;&amp;nbsp; RF_B4, RF_B4.2&lt;/div&gt;&lt;div&gt;&lt;br&gt;&lt;/div&gt;" style="verticalAlign=top;align=left;overflow=fill;html=1;whiteSpace=wrap;" parent="1" vertex="1">
          <mxGeometry x="90" y="1730" width="330" height="280" as="geometry" />
        </mxCell>
        <mxCell id="czN3PmELxrrif3z_Lymv-6" value="&lt;p style=&quot;margin:0px;margin-top:4px;text-align:center;&quot;&gt;&lt;b&gt;Caso de uso:&amp;nbsp; Edição de Conta&lt;/b&gt;&lt;/p&gt;&lt;hr size=&quot;1&quot; style=&quot;border-style:solid;&quot;&gt;&lt;p style=&quot;margin:0px;margin-left:4px;&quot;&gt;Atores: Usuário&lt;/p&gt;&lt;hr id=&quot;null&quot;&gt;&lt;p style=&quot;margin:0px;margin-left:4px;&quot;&gt;Finalidade: Alterar registro das contas&lt;/p&gt;&lt;hr size=&quot;1&quot; style=&quot;border-style:solid;&quot;&gt;&lt;p style=&quot;margin:0px;margin-left:4px;&quot;&gt;Visão Geral: Alterar registros das contas a serem pagas já existentes.&lt;/p&gt;&lt;hr id=&quot;null&quot;&gt;&lt;p style=&quot;margin:0px;margin-left:4px;&quot;&gt;Tipo: Primário&lt;/p&gt;&lt;hr id=&quot;null&quot;&gt;&lt;div&gt;Referências &lt;br&gt;Cruzadas: Requisitos -&amp;gt;&amp;nbsp; RF_B5&lt;/div&gt;&lt;div&gt;&lt;br&gt;&lt;/div&gt;" style="verticalAlign=top;align=left;overflow=fill;html=1;whiteSpace=wrap;" parent="1" vertex="1">
          <mxGeometry x="90" y="970" width="330" height="280" as="geometry" />
        </mxCell>
        <mxCell id="czN3PmELxrrif3z_Lymv-7" value="&lt;p style=&quot;margin:0px;margin-top:4px;text-align:center;&quot;&gt;&lt;b&gt;Caso de uso:&amp;nbsp; Edição de Evento/Atividade&lt;/b&gt;&lt;/p&gt;&lt;hr size=&quot;1&quot; style=&quot;border-style:solid;&quot;&gt;&lt;p style=&quot;margin:0px;margin-left:4px;&quot;&gt;Atores: Usuário&lt;/p&gt;&lt;hr id=&quot;null&quot;&gt;&lt;p style=&quot;margin:0px;margin-left:4px;&quot;&gt;Finalidade: Alterar eventos/atividades existentes&lt;/p&gt;&lt;hr size=&quot;1&quot; style=&quot;border-style:solid;&quot;&gt;&lt;p style=&quot;margin:0px;margin-left:4px;&quot;&gt;Visão Geral: Alterar registros dos eventos/atividades existentes.&lt;/p&gt;&lt;hr id=&quot;null&quot;&gt;&lt;p style=&quot;margin:0px;margin-left:4px;&quot;&gt;Tipo: Primário&lt;/p&gt;&lt;hr id=&quot;null&quot;&gt;&lt;div&gt;Referências &lt;br&gt;Cruzadas: Requisitos -&amp;gt;&amp;nbsp; RF_B5&lt;/div&gt;&lt;div&gt;&lt;br&gt;&lt;/div&gt;" style="verticalAlign=top;align=left;overflow=fill;html=1;whiteSpace=wrap;" parent="1" vertex="1">
          <mxGeometry x="460" y="970" width="330" height="280" as="geometry" />
        </mxCell>
        <mxCell id="czN3PmELxrrif3z_Lymv-8" value="&lt;p style=&quot;margin:0px;margin-top:4px;text-align:center;&quot;&gt;&lt;b&gt;Caso de uso:&amp;nbsp; Exclusão de Conta&lt;/b&gt;&lt;/p&gt;&lt;hr size=&quot;1&quot; style=&quot;border-style:solid;&quot;&gt;&lt;p style=&quot;margin:0px;margin-left:4px;&quot;&gt;Atores: Usuário&lt;/p&gt;&lt;hr id=&quot;null&quot;&gt;&lt;p style=&quot;margin:0px;margin-left:4px;&quot;&gt;Finalidade: Excluir registro das contas&lt;/p&gt;&lt;hr size=&quot;1&quot; style=&quot;border-style:solid;&quot;&gt;&lt;p style=&quot;margin:0px;margin-left:4px;&quot;&gt;Visão Geral: Excluir registros das contas a serem pagas já existentes.&lt;/p&gt;&lt;hr id=&quot;null&quot;&gt;&lt;p style=&quot;margin:0px;margin-left:4px;&quot;&gt;Tipo: Primário&lt;/p&gt;&lt;hr id=&quot;null&quot;&gt;&lt;div&gt;Referências &lt;br&gt;Cruzadas: Requisitos -&amp;gt;&amp;nbsp; RF_B5&lt;/div&gt;&lt;div&gt;&lt;br&gt;&lt;/div&gt;" style="verticalAlign=top;align=left;overflow=fill;html=1;whiteSpace=wrap;" parent="1" vertex="1">
          <mxGeometry x="90" y="1340" width="330" height="280" as="geometry" />
        </mxCell>
        <mxCell id="TaJFN8cOOA2_DRdMaHoU-19" value="Sequência Típica de Eventos" style="shape=umlFrame;whiteSpace=wrap;html=1;pointerEvents=0;width=770;height=70;" parent="1" vertex="1">
          <mxGeometry x="1000" y="90" width="770" height="530" as="geometry" />
        </mxCell>
        <mxCell id="TaJFN8cOOA2_DRdMaHoU-20" value="" style="whiteSpace=wrap;html=1;align=left;" parent="1" vertex="1">
          <mxGeometry x="1000" y="160" width="770" height="460" as="geometry" />
        </mxCell>
        <mxCell id="TaJFN8cOOA2_DRdMaHoU-34" value="" style="shape=table;startSize=0;container=1;collapsible=0;childLayout=tableLayout;" parent="1" vertex="1">
          <mxGeometry x="1000" y="160" width="770" height="60" as="geometry" />
        </mxCell>
        <mxCell id="TaJFN8cOOA2_DRdMaHoU-35" value="" style="shape=tableRow;horizontal=0;startSize=0;swimlaneHead=0;swimlaneBody=0;strokeColor=inherit;top=0;left=0;bottom=0;right=0;collapsible=0;dropTarget=0;fillColor=none;points=[[0,0.5],[1,0.5]];portConstraint=eastwest;" parent="TaJFN8cOOA2_DRdMaHoU-34" vertex="1">
          <mxGeometry width="770" height="60" as="geometry" />
        </mxCell>
        <mxCell id="TaJFN8cOOA2_DRdMaHoU-36" value="&lt;font style=&quot;font-size: 36px;&quot;&gt;Ação do Ator&lt;/font&gt;" style="shape=partialRectangle;html=1;whiteSpace=wrap;connectable=0;strokeColor=inherit;overflow=hidden;fillColor=none;top=0;left=0;bottom=0;right=0;pointerEvents=1;align=left;" parent="TaJFN8cOOA2_DRdMaHoU-35" vertex="1">
          <mxGeometry width="385" height="60" as="geometry">
            <mxRectangle width="385" height="60" as="alternateBounds" />
          </mxGeometry>
        </mxCell>
        <mxCell id="TaJFN8cOOA2_DRdMaHoU-37" value="&lt;font style=&quot;font-size: 36px;&quot;&gt;Resposta do Aplicativo&lt;/font&gt;" style="shape=partialRectangle;html=1;whiteSpace=wrap;connectable=0;strokeColor=inherit;overflow=hidden;fillColor=none;top=0;left=0;bottom=0;right=0;pointerEvents=1;align=left;" parent="TaJFN8cOOA2_DRdMaHoU-35" vertex="1">
          <mxGeometry x="385" width="385" height="60" as="geometry">
            <mxRectangle width="385" height="60" as="alternateBounds" />
          </mxGeometry>
        </mxCell>
        <mxCell id="TaJFN8cOOA2_DRdMaHoU-21" value="" style="shape=table;startSize=0;container=1;collapsible=0;childLayout=tableLayout;labelPosition=center;verticalLabelPosition=middle;align=center;verticalAlign=middle;" parent="1" vertex="1">
          <mxGeometry x="1000" y="213" width="770" height="407" as="geometry" />
        </mxCell>
        <mxCell id="TaJFN8cOOA2_DRdMaHoU-22" value="" style="shape=tableRow;horizontal=0;startSize=0;swimlaneHead=0;swimlaneBody=0;strokeColor=inherit;top=0;left=0;bottom=0;right=0;collapsible=0;dropTarget=0;fillColor=none;points=[[0,0.5],[1,0.5]];portConstraint=eastwest;" parent="TaJFN8cOOA2_DRdMaHoU-21" vertex="1">
          <mxGeometry width="770" height="100" as="geometry" />
        </mxCell>
        <mxCell id="TaJFN8cOOA2_DRdMaHoU-23" value="&lt;font&gt;1. Este caso de uso começa quando o usuário insere os dados das contas fixas, luz e eletrodomésticos&lt;/font&gt;" style="shape=partialRectangle;html=1;whiteSpace=wrap;connectable=0;strokeColor=inherit;overflow=hidden;fillColor=none;top=0;left=0;bottom=0;right=0;pointerEvents=1;align=center;fontSize=18;labelPosition=center;verticalLabelPosition=middle;verticalAlign=middle;" parent="TaJFN8cOOA2_DRdMaHoU-22" vertex="1">
          <mxGeometry width="385" height="100" as="geometry">
            <mxRectangle width="385" height="100" as="alternateBounds" />
          </mxGeometry>
        </mxCell>
        <mxCell id="TaJFN8cOOA2_DRdMaHoU-24" value="&lt;font&gt;&amp;nbsp;2. O aplicativo calcula o custo do Kwh com o tempo do consumo do eletrodoméstico e faz a soma para o usuário.&lt;/font&gt;" style="shape=partialRectangle;html=1;whiteSpace=wrap;connectable=0;strokeColor=inherit;overflow=hidden;fillColor=none;top=0;left=0;bottom=0;right=0;pointerEvents=1;align=center;fontSize=18;labelPosition=center;verticalLabelPosition=middle;verticalAlign=middle;" parent="TaJFN8cOOA2_DRdMaHoU-22" vertex="1">
          <mxGeometry x="385" width="385" height="100" as="geometry">
            <mxRectangle width="385" height="100" as="alternateBounds" />
          </mxGeometry>
        </mxCell>
        <mxCell id="TaJFN8cOOA2_DRdMaHoU-25" value="" style="shape=tableRow;horizontal=0;startSize=0;swimlaneHead=0;swimlaneBody=0;strokeColor=inherit;top=0;left=0;bottom=0;right=0;collapsible=0;dropTarget=0;fillColor=none;points=[[0,0.5],[1,0.5]];portConstraint=eastwest;fontSize=18;" parent="TaJFN8cOOA2_DRdMaHoU-21" vertex="1">
          <mxGeometry y="100" width="770" height="102" as="geometry" />
        </mxCell>
        <mxCell id="TaJFN8cOOA2_DRdMaHoU-26" value="3. Usuário adiciona evento/atividade ao calendário" style="shape=partialRectangle;html=1;whiteSpace=wrap;connectable=0;strokeColor=inherit;overflow=hidden;fillColor=none;top=0;left=0;bottom=0;right=0;pointerEvents=1;align=left;labelPosition=center;verticalLabelPosition=middle;verticalAlign=middle;fontSize=18;" parent="TaJFN8cOOA2_DRdMaHoU-25" vertex="1">
          <mxGeometry width="385" height="102" as="geometry">
            <mxRectangle width="385" height="102" as="alternateBounds" />
          </mxGeometry>
        </mxCell>
        <mxCell id="TaJFN8cOOA2_DRdMaHoU-27" value="" style="shape=partialRectangle;html=1;whiteSpace=wrap;connectable=0;strokeColor=inherit;overflow=hidden;fillColor=none;top=0;left=0;bottom=0;right=0;pointerEvents=1;fontSize=18;align=left;labelPosition=center;verticalLabelPosition=middle;verticalAlign=middle;" parent="TaJFN8cOOA2_DRdMaHoU-25" vertex="1">
          <mxGeometry x="385" width="385" height="102" as="geometry">
            <mxRectangle width="385" height="102" as="alternateBounds" />
          </mxGeometry>
        </mxCell>
        <mxCell id="TaJFN8cOOA2_DRdMaHoU-28" value="" style="shape=tableRow;horizontal=0;startSize=0;swimlaneHead=0;swimlaneBody=0;strokeColor=inherit;top=0;left=0;bottom=0;right=0;collapsible=0;dropTarget=0;fillColor=none;points=[[0,0.5],[1,0.5]];portConstraint=eastwest;" parent="TaJFN8cOOA2_DRdMaHoU-21" vertex="1">
          <mxGeometry y="202" width="770" height="103" as="geometry" />
        </mxCell>
        <mxCell id="TaJFN8cOOA2_DRdMaHoU-29" value="4. Usuário checa a soma das contas" style="shape=partialRectangle;html=1;whiteSpace=wrap;connectable=0;strokeColor=inherit;overflow=hidden;fillColor=none;top=0;left=0;bottom=0;right=0;pointerEvents=1;fontSize=18;align=left;labelPosition=center;verticalLabelPosition=middle;verticalAlign=middle;" parent="TaJFN8cOOA2_DRdMaHoU-28" vertex="1">
          <mxGeometry width="385" height="103" as="geometry">
            <mxRectangle width="385" height="103" as="alternateBounds" />
          </mxGeometry>
        </mxCell>
        <mxCell id="TaJFN8cOOA2_DRdMaHoU-30" value="" style="shape=partialRectangle;html=1;whiteSpace=wrap;connectable=0;strokeColor=inherit;overflow=hidden;fillColor=none;top=0;left=0;bottom=0;right=0;pointerEvents=1;fontSize=18;align=center;labelPosition=center;verticalLabelPosition=middle;verticalAlign=middle;" parent="TaJFN8cOOA2_DRdMaHoU-28" vertex="1">
          <mxGeometry x="385" width="385" height="103" as="geometry">
            <mxRectangle width="385" height="103" as="alternateBounds" />
          </mxGeometry>
        </mxCell>
        <mxCell id="TaJFN8cOOA2_DRdMaHoU-31" value="" style="shape=tableRow;horizontal=0;startSize=0;swimlaneHead=0;swimlaneBody=0;strokeColor=inherit;top=0;left=0;bottom=0;right=0;collapsible=0;dropTarget=0;fillColor=none;points=[[0,0.5],[1,0.5]];portConstraint=eastwest;" parent="TaJFN8cOOA2_DRdMaHoU-21" vertex="1">
          <mxGeometry y="305" width="770" height="102" as="geometry" />
        </mxCell>
        <mxCell id="TaJFN8cOOA2_DRdMaHoU-32" value="5. Usuário checa sua agenda" style="shape=partialRectangle;html=1;whiteSpace=wrap;connectable=0;strokeColor=inherit;overflow=hidden;fillColor=none;top=0;left=0;bottom=0;right=0;pointerEvents=1;fontSize=18;align=left;labelPosition=center;verticalLabelPosition=middle;verticalAlign=middle;" parent="TaJFN8cOOA2_DRdMaHoU-31" vertex="1">
          <mxGeometry width="385" height="102" as="geometry">
            <mxRectangle width="385" height="102" as="alternateBounds" />
          </mxGeometry>
        </mxCell>
        <mxCell id="TaJFN8cOOA2_DRdMaHoU-33" value="" style="shape=partialRectangle;html=1;whiteSpace=wrap;connectable=0;strokeColor=inherit;overflow=hidden;fillColor=none;top=0;left=0;bottom=0;right=0;pointerEvents=1;fontSize=18;align=center;labelPosition=center;verticalLabelPosition=middle;verticalAlign=middle;" parent="TaJFN8cOOA2_DRdMaHoU-31" vertex="1">
          <mxGeometry x="385" width="385" height="102" as="geometry">
            <mxRectangle width="385" height="102" as="alternateBounds" />
          </mxGeometry>
        </mxCell>
      </root>
    </mxGraphModel>
  </diagram>
</mxfile>
